<?xml version="1.0" encoding="utf-8"?>
<!-- Generator: Adobe Illustrator 22.0.1, SVG Export Plug-In . SVG Version: 6.00 Build 0)  -->
<svg version="1.1" xmlns="http://www.w3.org/2000/svg" xmlns:xlink="http://www.w3.org/1999/xlink" x="0px" y="0px"
	 viewBox="0 0 1366 768" style="enable-background:new 0 0 1366 768;" xml:space="preserve">
<style type="text/css">
	.st0{fill:#2B7A4D;}
	.st1{fill:#FFFFFF;}
	.st2{fill:#BAAFCD;stroke:#FFFFFF;stroke-width:2;stroke-miterlimit:10;}
	.st3{font-family:'Inter-BoldItalic';}
	.st4{font-size:232.6958px;}
</style>
<g id="Layer_1">
</g>
<g id="Layer_2">
	<path class="st0" d="M497,221c0.3,1.2,4.4,17.6-7,30c-8.4,9.2-19.6,9.9-22,10c-20.7-0.3-41.3-0.7-62-1c2.3-8.3,4.7-16.7,7-25
		c-21.3,11.7-42.7,23.3-64,35c15.7,16.7,31.3,33.3,47,50c1-8.7,2-17.3,3-26c16.7,0.3,33.3,0.7,50,1c5.6-0.6,14.4-2.2,24-7
		c7.2-3.6,21-10.4,28-26c1.3-2.9,8.6-19.3,1-34C500.4,224.8,498.5,222.5,497,221z"/>
	<path class="st0" d="M451,102c17.7,0,35.3,0,53,0c0.3-8.3,0.7-16.7,1-25c16.7,16.3,33.3,32.7,50,49c-22,11.7-44,23.3-66,35
		c2.8-8.2,5.7-16.3,8.5-24.5c-22.3,0-44.7,0-67,0c-2.5,0.1-6.7,0.5-11,3c-10.2,5.9-11.8,19.3-12,21c-1.1,10.4,4.9,18.6,4,19
		c-0.6,0.3-3.5-3.7-5.5-8.5c-3.9-9.4-2.7-18.1-2-23c0.4-2.7,1.9-11.4,7-20C423.1,107.7,446.8,102.8,451,102z"/>
	<path class="st1" d="M450,103c-1.7,0.3-33.5,6.2-44,34c-4.3,11.5-6.1,29.7,3,42c3.5,4.7,8.6,8.4,19,16c3.9,2.9,7.6,5.2,15,10
		c10,6.5,19.2,14.2,29,21c0.2,0.1,1.1,0.8,2,2c1.5,1.9,3.2,5.3,2,7c-0.8,1.1-2.8,1.1-4,1c-7.7-0.4-11.3-1.4-15-2
		c-30.5-5.2-62.3-10.6-78-34c-10.3-15.4-12.2-36.3-6-54c10.1-28.8,38.2-38.4,43-40C430.4,101.1,443,102,450,103z"/>
	<path class="st1" d="M447,163c6.4,0.9,16.4,2.7,29,7c8.8,3,17.3,5.9,27,12c10.3,6.4,21.4,13.3,28,27c8.5,17.5,4.1,34.7,3,39
		c-6.1,23-25.1,37.5-40.5,42.5c-5.6,1.8-10,2.5-17.5,3.5c-11.1,1.5-20.5,1.4-27,1c5.9-0.8,15-2.8,24.5-8.5c10.2-6.1,15.9-13.5,17-15
		c2.9-3.8,8.6-11.4,10-22v0c0.8-5.8,1.3-15.3-2.5-25.5c-6.3-16.6-20.8-26-43-40c-20.6-13-34-17.9-33-21C423,159.7,439.4,162,447,163
		z"/>
	<text transform="matrix(0.6774 -4.455539e-04 6.577431e-04 1 548.0317 271.1309)" class="st2 st3 st4">e b a q</text>
</g>
</svg>
